<svg width="358" height="60" viewBox="0 0 358 60" fill="none" xmlns="http://www.w3.org/2000/svg">
<path d="M133.436 30.984C133.436 34.504 132.776 37.452 131.456 39.828C130.165 42.204 128.303 43.9933 125.868 45.196C123.433 46.3987 120.485 47 117.024 47H108.268V15.584H117.948C121.116 15.584 123.859 16.1707 126.176 17.344C128.493 18.5173 130.283 20.248 131.544 22.536C132.805 24.7947 133.436 27.6107 133.436 30.984ZM129.256 31.116C129.256 28.3293 128.787 26.0413 127.848 24.252C126.939 22.4627 125.589 21.1427 123.8 20.292C122.04 19.412 119.899 18.972 117.376 18.972H112.228V43.612H116.496C120.749 43.612 123.932 42.5707 126.044 40.488C128.185 38.376 129.256 35.252 129.256 31.116ZM156.205 47H138.649V15.584H156.205V19.06H142.609V28.872H155.413V32.304H142.609V43.524H156.205V47ZM161.778 47V15.584H165.738V43.48H179.466V47H161.778ZM195.896 47H184.544V44.712L188.24 43.876V18.752L184.544 17.872V15.584H195.896V17.872L192.2 18.752V43.876L195.896 44.712V47ZM226.734 15.584L215.514 47H211.554L200.334 15.584H204.47L211.554 35.736C211.877 36.5867 212.156 37.408 212.39 38.2C212.625 38.992 212.83 39.7547 213.006 40.488C213.212 41.192 213.388 41.896 213.534 42.6C213.681 41.896 213.842 41.1773 214.018 40.444C214.224 39.7107 214.444 38.948 214.678 38.156C214.942 37.364 215.221 36.528 215.514 35.648L222.554 15.584H226.734ZM248.101 47H230.545V15.584H248.101V19.06H234.505V28.872H247.309V32.304H234.505V43.524H248.101V47ZM262.342 15.584C264.953 15.584 267.094 15.9213 268.766 16.596C270.468 17.2413 271.729 18.224 272.55 19.544C273.372 20.864 273.782 22.5213 273.782 24.516C273.782 26.188 273.474 27.5813 272.858 28.696C272.242 29.8107 271.45 30.7053 270.482 31.38C269.544 32.0253 268.546 32.5387 267.49 32.92L276.114 47H271.494L263.882 34.02H257.634V47H253.674V15.584H262.342ZM262.122 19.016H257.634V30.676H262.342C264.044 30.676 265.437 30.456 266.522 30.016C267.608 29.5467 268.4 28.872 268.898 27.992C269.426 27.112 269.69 26.012 269.69 24.692C269.69 23.3133 269.412 22.2133 268.854 21.392C268.326 20.5707 267.505 19.9693 266.39 19.588C265.276 19.2067 263.853 19.016 262.122 19.016ZM289.229 31.028L297.413 15.584H301.681L291.209 34.812V47H287.249V34.988L276.777 15.584H281.089L289.229 31.028ZM312.259 47L313.579 40.708H301.303L302.359 35.472L318.815 15.584H325.987L321.895 34.988H325.371L324.139 40.708H320.707L319.387 47H312.259ZM309.091 34.988H314.767L315.911 30.192C316.087 29.5467 316.278 28.8427 316.483 28.08C316.689 27.3173 316.879 26.6133 317.055 25.968C317.231 25.3227 317.363 24.8533 317.451 24.56H317.275C317.07 24.912 316.821 25.3227 316.527 25.792C316.234 26.232 315.926 26.672 315.603 27.112C315.31 27.552 315.002 27.9773 314.679 28.388L309.091 34.988ZM339.559 47.44C337.388 47.44 335.54 47.0587 334.015 46.296C332.519 45.5333 331.375 44.4773 330.583 43.128C329.791 41.7787 329.395 40.224 329.395 38.464C329.395 38.024 329.41 37.54 329.439 37.012C329.498 36.4547 329.586 35.9267 329.703 35.428L333.927 15.584H341.363L337.183 35.296C337.066 35.736 336.978 36.176 336.919 36.616C336.86 37.056 336.831 37.4667 336.831 37.848C336.831 38.904 337.124 39.7253 337.711 40.312C338.298 40.8987 339.163 41.192 340.307 41.192C341.392 41.192 342.287 40.972 342.991 40.532C343.724 40.092 344.326 39.4173 344.795 38.508C345.264 37.5987 345.646 36.44 345.939 35.032L350.075 15.584H357.511L353.199 35.78C352.7 38.156 351.908 40.224 350.823 41.984C349.767 43.7147 348.315 45.064 346.467 46.032C344.648 46.9707 342.346 47.44 339.559 47.44Z" fill="white"/>
<g clip-path="url(#clip0_207_77)">
<path d="M28.4268 44.5789C24.9353 44.5789 22.5569 42.0197 23.1182 38.8707L27.8084 12.2325C28.0184 11.4192 28.4915 10.6983 29.154 10.1821C29.8165 9.66582 30.6313 9.38324 31.4712 9.37841H74.6251C75.0002 9.34241 75.3787 9.39331 75.731 9.52714C76.0834 9.66098 76.4002 9.87417 76.6568 10.1502C76.9135 10.4262 77.1032 10.7575 77.2111 11.1187C77.3191 11.4798 77.3424 11.8609 77.2794 12.2325L72.5891 38.8707" stroke="white" stroke-width="4.75682" stroke-miterlimit="10"/>
<path d="M65.2633 44.5791H44.7139" stroke="white" stroke-width="4.75682" stroke-miterlimit="10"/>
<path d="M77.0889 17.2275H84.5476C85.0559 17.2277 85.5549 17.3635 85.9931 17.6211C86.4313 17.8787 86.7928 18.2486 87.0401 18.6926L92.5295 28.4632C92.855 29.0406 92.9694 29.7133 92.853 30.3659L90.3509 44.5888H78.4874" stroke="white" stroke-width="4.75682" stroke-miterlimit="10"/>
<path d="M71.3521 54.1017C75.5555 54.1017 78.963 50.6942 78.963 46.4908C78.963 42.2874 75.5555 38.8799 71.3521 38.8799C67.1487 38.8799 63.7412 42.2874 63.7412 46.4908C63.7412 50.6942 67.1487 54.1017 71.3521 54.1017Z" stroke="white" stroke-width="4.75682" stroke-miterlimit="10"/>
<path d="M37.1031 54.1017C41.3065 54.1017 44.714 50.6942 44.714 46.4908C44.714 42.2874 41.3065 38.8799 37.1031 38.8799C32.8997 38.8799 29.4922 42.2874 29.4922 46.4908C29.4922 50.6942 32.8997 54.1017 37.1031 54.1017Z" stroke="white" stroke-width="4.75682" stroke-miterlimit="10"/>
<path d="M26.162 17.2363H2.37793" stroke="white" stroke-width="4.75682" stroke-miterlimit="10" stroke-linecap="round"/>
<path d="M24.2601 26.5029H8.08691" stroke="white" stroke-width="4.75682" stroke-miterlimit="10" stroke-linecap="round"/>
<path d="M22.3572 35.7695H13.7949" stroke="white" stroke-width="4.75682" stroke-miterlimit="10" stroke-linecap="round"/>
</g>
<defs>
<clipPath id="clip0_207_77">
<rect width="95.2792" height="49.4805" fill="white" transform="translate(0 7)"/>
</clipPath>
</defs>
</svg>
