<svg width="2123" height="339" viewBox="0 0 2123 339" fill="none" xmlns="http://www.w3.org/2000/svg">
<path d="M144.074 118.847L117.724 126.304C116.067 121.912 113.623 117.645 110.391 113.502C107.243 109.276 102.934 105.796 97.4652 103.062C91.9965 100.327 84.9948 98.9602 76.4602 98.9602C64.777 98.9602 55.041 101.653 47.2521 107.039C39.5462 112.342 35.6932 119.095 35.6932 127.298C35.6932 134.59 38.3447 140.349 43.6477 144.575C48.9508 148.8 57.2367 152.322 68.5057 155.139L96.8438 162.099C113.913 166.242 126.632 172.581 135.001 181.116C143.37 189.567 147.554 200.464 147.554 213.804C147.554 224.741 144.405 234.519 138.108 243.136C131.893 251.754 123.193 258.548 112.007 263.52C100.821 268.491 87.812 270.977 72.9801 270.977C53.5081 270.977 37.3918 266.751 24.6314 258.3C11.871 249.848 3.79214 237.502 0.394887 221.261L28.2358 214.301C30.8873 224.576 35.9003 232.282 43.2749 237.419C50.7322 242.556 60.4683 245.125 72.483 245.125C86.1548 245.125 97.0095 242.225 105.047 236.425C113.167 230.542 117.227 223.499 117.227 215.295C117.227 208.667 114.907 203.115 110.267 198.641C105.627 194.083 98.5009 190.686 88.8892 188.449L57.071 180.991C39.5876 176.848 26.7443 170.427 18.5412 161.727C10.4209 152.943 6.3608 141.964 6.3608 128.79C6.3608 118.018 9.38518 108.489 15.4339 100.203C21.5656 91.9171 29.893 85.4126 40.4162 80.6896C51.0223 75.9666 63.0369 73.6051 76.4602 73.6051C95.3523 73.6051 110.184 77.7481 120.956 86.0341C131.811 94.3201 139.517 105.258 144.074 118.847ZM293.765 270.977C276.53 270.977 261.408 266.876 248.399 258.673C235.473 250.469 225.364 238.993 218.072 224.244C210.863 209.495 207.259 192.26 207.259 172.54C207.259 152.653 210.863 135.294 218.072 120.462C225.364 105.63 235.473 94.1129 248.399 85.9098C261.408 77.7067 276.53 73.6051 293.765 73.6051C311 73.6051 326.08 77.7067 339.006 85.9098C352.015 94.1129 362.124 105.63 369.333 120.462C376.625 135.294 380.27 152.653 380.27 172.54C380.27 192.26 376.625 209.495 369.333 224.244C362.124 238.993 352.015 250.469 339.006 258.673C326.08 266.876 311 270.977 293.765 270.977ZM293.765 244.628C306.857 244.628 317.628 241.272 326.08 234.56C334.532 227.849 340.788 219.024 344.848 208.087C348.908 197.149 350.938 185.3 350.938 172.54C350.938 159.779 348.908 147.889 344.848 136.869C340.788 125.848 334.532 116.941 326.08 110.146C317.628 103.352 306.857 99.9545 293.765 99.9545C280.673 99.9545 269.901 103.352 261.449 110.146C252.998 116.941 246.742 125.848 242.682 136.869C238.622 147.889 236.591 159.779 236.591 172.54C236.591 185.3 238.622 197.149 242.682 208.087C246.742 219.024 252.998 227.849 261.449 234.56C269.901 241.272 280.673 244.628 293.765 244.628ZM534.56 76.0909V100.949H431.648V76.0909H534.56ZM462.472 267V49.7415C462.472 38.804 465.041 29.6894 470.178 22.3977C475.315 15.106 481.985 9.63729 490.189 5.99146C498.392 2.34563 507.051 0.52271 516.165 0.52271C523.374 0.52271 529.257 1.10273 533.814 2.26278C538.372 3.42281 541.769 4.49999 544.006 5.49431L535.554 30.8494C534.063 30.3523 531.991 29.7308 529.34 28.9851C526.771 28.2393 523.374 27.8665 519.148 27.8665C509.453 27.8665 502.452 30.3108 498.143 35.1996C493.917 40.0883 491.804 47.2557 491.804 56.7017V267H462.472ZM683.194 76.0909V100.949H584.26V76.0909H683.194ZM613.095 30.3523H642.427V212.312C642.427 220.598 643.629 226.813 646.032 230.956C648.518 235.016 651.666 237.75 655.478 239.159C659.372 240.485 663.474 241.148 667.782 241.148C671.014 241.148 673.666 240.982 675.737 240.651C677.809 240.236 679.466 239.905 680.709 239.656L686.675 266.006C684.686 266.751 681.91 267.497 678.347 268.243C674.784 269.071 670.268 269.486 664.8 269.486C656.514 269.486 648.393 267.704 640.439 264.141C632.567 260.578 626.021 255.151 620.801 247.859C615.664 240.568 613.095 231.37 613.095 220.267V30.3523ZM829.809 270.977C811.414 270.977 795.547 266.917 782.206 258.797C768.949 250.594 758.715 239.159 751.507 224.493C744.381 209.744 740.818 192.592 740.818 173.037C740.818 153.482 744.381 136.247 751.507 121.332C758.715 106.335 768.741 94.6515 781.585 86.2827C794.511 77.831 809.591 73.6051 826.826 73.6051C836.769 73.6051 846.588 75.2623 856.283 78.5767C865.977 81.8911 874.802 87.277 882.757 94.7344C890.711 102.109 897.05 111.886 901.773 124.067C906.496 136.247 908.857 151.245 908.857 169.06V181.489H761.698V156.134H879.028C879.028 145.362 876.874 135.75 872.565 127.298C868.339 118.847 862.29 112.176 854.419 107.288C846.63 102.399 837.432 99.9545 826.826 99.9545C815.143 99.9545 805.034 102.855 796.499 108.655C788.048 114.372 781.543 121.83 776.986 131.027C772.429 140.224 770.15 150.085 770.15 160.608V177.511C770.15 191.929 772.636 204.151 777.607 214.177C782.662 224.12 789.664 231.702 798.612 236.922C807.561 242.059 817.96 244.628 829.809 244.628C837.515 244.628 844.475 243.551 850.69 241.396C856.987 239.159 862.414 235.845 866.972 231.453C871.529 226.979 875.051 221.427 877.536 214.798L905.874 222.753C902.892 232.365 897.878 240.816 890.835 248.108C883.792 255.317 875.092 260.951 864.735 265.011C854.377 268.989 842.735 270.977 829.809 270.977ZM1055.53 270.977C1037.64 270.977 1022.22 266.751 1009.3 258.3C996.372 249.848 986.429 238.206 979.469 223.374C972.509 208.542 969.029 191.598 969.029 172.54C969.029 153.151 972.592 136.04 979.718 121.208C986.926 106.293 996.952 94.6515 1009.8 86.2827C1022.72 77.831 1037.8 73.6051 1055.04 73.6051C1068.46 73.6051 1080.56 76.0909 1091.33 81.0625C1102.1 86.0341 1110.93 92.9943 1117.8 101.943C1124.68 110.892 1128.95 121.332 1130.61 133.264H1101.27C1099.04 124.564 1094.06 116.858 1086.36 110.146C1078.74 103.352 1068.46 99.9545 1055.53 99.9545C1044.1 99.9545 1034.07 102.937 1025.46 108.903C1016.92 114.786 1010.25 123.114 1005.45 133.886C1000.72 144.575 998.361 157.128 998.361 171.545C998.361 186.295 1000.68 199.138 1005.32 210.075C1010.04 221.013 1016.67 229.506 1025.21 235.555C1033.82 241.603 1043.93 244.628 1055.53 244.628C1063.16 244.628 1070.08 243.302 1076.29 240.651C1082.51 237.999 1087.77 234.188 1092.08 229.216C1096.38 224.244 1099.45 218.278 1101.27 211.318H1130.61C1128.95 222.587 1124.85 232.737 1118.3 241.769C1111.84 250.718 1103.26 257.844 1092.57 263.147C1081.97 268.367 1069.62 270.977 1055.53 270.977ZM1227.32 152.156V267H1197.99V12.4545H1227.32V105.92H1229.8C1234.28 96.0601 1240.99 88.2299 1249.94 82.4297C1258.97 76.5466 1270.98 73.6051 1285.98 73.6051C1298.99 73.6051 1310.38 76.2152 1320.16 81.4354C1329.94 86.5727 1337.52 94.4858 1342.91 105.175C1348.38 115.781 1351.11 129.287 1351.11 145.693V267H1321.78V147.682C1321.78 132.518 1317.84 120.794 1309.97 112.508C1302.18 104.139 1291.37 99.9545 1277.53 99.9545C1267.92 99.9545 1259.3 101.985 1251.68 106.045C1244.14 110.105 1238.17 116.029 1233.78 123.818C1229.47 131.607 1227.32 141.053 1227.32 152.156ZM1450.65 268.989C1444.52 268.989 1439.26 266.793 1434.87 262.401C1430.47 258.01 1428.28 252.748 1428.28 246.616C1428.28 240.485 1430.47 235.223 1434.87 230.832C1439.26 226.44 1444.52 224.244 1450.65 224.244C1456.78 224.244 1462.04 226.44 1466.44 230.832C1470.83 235.223 1473.02 240.485 1473.02 246.616C1473.02 250.677 1471.99 254.405 1469.92 257.803C1467.93 261.2 1465.23 263.934 1461.84 266.006C1458.52 267.994 1454.79 268.989 1450.65 268.989ZM1599.34 271.474C1587.24 271.474 1576.26 269.196 1566.4 264.638C1556.54 259.998 1548.71 253.328 1542.91 244.628C1537.11 235.845 1534.21 225.239 1534.21 212.81C1534.21 201.872 1536.36 193.006 1540.67 186.212C1544.98 179.334 1550.74 173.948 1557.95 170.054C1565.16 166.16 1573.11 163.259 1581.81 161.354C1590.6 159.365 1599.42 157.791 1608.29 156.631C1619.89 155.139 1629.29 154.021 1636.5 153.275C1643.79 152.446 1649.1 151.079 1652.41 149.173C1655.81 147.268 1657.51 143.953 1657.51 139.23V138.236C1657.51 125.973 1654.15 116.444 1647.44 109.649C1640.81 102.855 1630.74 99.4574 1617.24 99.4574C1603.23 99.4574 1592.25 102.523 1584.3 108.655C1576.34 114.786 1570.75 121.332 1567.52 128.293L1539.68 118.349C1544.65 106.749 1551.28 97.7173 1559.57 91.2543C1567.93 84.7083 1577.05 80.151 1586.91 77.5824C1596.85 74.9309 1606.63 73.6051 1616.24 73.6051C1622.37 73.6051 1629.42 74.3508 1637.37 75.8423C1645.41 77.2509 1653.16 80.1925 1660.61 84.6669C1668.15 89.1413 1674.41 95.8944 1679.38 104.926C1684.35 113.958 1686.84 126.055 1686.84 141.219V267H1657.51V241.148H1656.01C1654.03 245.291 1650.71 249.724 1646.07 254.447C1641.43 259.17 1635.26 263.188 1627.55 266.503C1619.85 269.817 1610.44 271.474 1599.34 271.474ZM1603.81 245.125C1615.41 245.125 1625.19 242.846 1633.14 238.289C1641.18 233.732 1647.23 227.849 1651.29 220.64C1655.43 213.431 1657.51 205.849 1657.51 197.895V171.048C1656.26 172.54 1653.53 173.907 1649.3 175.15C1645.16 176.31 1640.35 177.346 1634.88 178.257C1629.5 179.086 1624.24 179.831 1619.1 180.494C1614.05 181.074 1609.94 181.571 1606.8 181.986C1599.17 182.98 1592.05 184.596 1585.42 186.833C1578.87 188.987 1573.57 192.26 1569.51 196.652C1565.53 200.961 1563.54 206.844 1563.54 214.301C1563.54 224.493 1567.31 232.199 1574.85 237.419C1582.48 242.556 1592.13 245.125 1603.81 245.125ZM1740.38 338.591V76.0909H1768.71V106.418H1772.19C1774.35 103.103 1777.33 98.8774 1781.14 93.74C1785.04 88.5199 1790.59 83.8797 1797.8 79.8196C1805.09 75.6766 1814.95 73.6051 1827.38 73.6051C1843.45 73.6051 1857.62 77.6238 1869.89 85.6612C1882.15 93.6986 1891.72 105.092 1898.6 119.841C1905.47 134.59 1908.91 151.991 1908.91 172.043C1908.91 192.26 1905.47 209.785 1898.6 224.617C1891.72 239.366 1882.19 250.801 1870.01 258.921C1857.83 266.959 1843.78 270.977 1827.88 270.977C1815.61 270.977 1805.79 268.947 1798.42 264.887C1791.04 260.744 1785.37 256.062 1781.39 250.842C1777.41 245.539 1774.35 241.148 1772.19 237.668H1769.71V338.591H1740.38ZM1769.21 171.545C1769.21 185.963 1771.32 198.682 1775.55 209.702C1779.78 220.64 1785.95 229.216 1794.07 235.43C1802.19 241.562 1812.13 244.628 1823.9 244.628C1836.16 244.628 1846.4 241.396 1854.6 234.933C1862.88 228.387 1869.1 219.604 1873.24 208.584C1877.47 197.481 1879.58 185.134 1879.58 171.545C1879.58 158.122 1877.51 146.025 1873.37 135.253C1869.31 124.398 1863.13 115.822 1854.85 109.525C1846.64 103.145 1836.33 99.9545 1823.9 99.9545C1811.97 99.9545 1801.94 102.979 1793.82 109.028C1785.7 114.994 1779.57 123.362 1775.43 134.134C1771.28 144.823 1769.21 157.294 1769.21 171.545ZM1953.66 338.591V76.0909H1982V106.418H1985.48C1987.63 103.103 1990.61 98.8774 1994.42 93.74C1998.32 88.5199 2003.87 83.8797 2011.08 79.8196C2018.37 75.6766 2028.23 73.6051 2040.66 73.6051C2056.73 73.6051 2070.9 77.6238 2083.17 85.6612C2095.43 93.6986 2105 105.092 2111.88 119.841C2118.76 134.59 2122.19 151.991 2122.19 172.043C2122.19 192.26 2118.76 209.785 2111.88 224.617C2105 239.366 2095.47 250.801 2083.29 258.921C2071.11 266.959 2057.07 270.977 2041.16 270.977C2028.89 270.977 2019.07 268.947 2011.7 264.887C2004.33 260.744 1998.65 256.062 1994.67 250.842C1990.7 245.539 1987.63 241.148 1985.48 237.668H1982.99V338.591H1953.66ZM1982.49 171.545C1982.49 185.963 1984.61 198.682 1988.83 209.702C1993.06 220.64 1999.23 229.216 2007.35 235.43C2015.47 241.562 2025.41 244.628 2037.18 244.628C2049.44 244.628 2059.68 241.396 2067.88 234.933C2076.17 228.387 2082.38 219.604 2086.52 208.584C2090.75 197.481 2092.86 185.134 2092.86 171.545C2092.86 158.122 2090.79 146.025 2086.65 135.253C2082.59 124.398 2076.41 115.822 2068.13 109.525C2059.92 103.145 2049.61 99.9545 2037.18 99.9545C2025.25 99.9545 2015.22 102.979 2007.1 109.028C1998.98 114.994 1992.85 123.362 1988.71 134.134C1984.56 144.823 1982.49 157.294 1982.49 171.545Z" fill="white"/>
</svg>
